<svg width="32" height="32" viewBox="0 0 32 32" fill="none" xmlns="http://www.w3.org/2000/svg">
<g clip-path="url(#clip0_212_2425)">
<path d="M17.92 1.5422L23.492 17.6982C24.276 17.9782 24.8267 18.3049 25.144 18.6782L24.864 21.0022H18.312L18.032 18.6782C18.256 18.3795 18.704 18.0995 19.376 17.8382L18.62 15.4862H13.02L12.32 17.7542C12.9733 18.0155 13.4587 18.3235 13.776 18.6782L13.496 21.0022H7.112L6.832 18.6782C7.168 18.2489 7.79333 17.8942 8.708 17.6142L14.084 1.5422H17.92ZM15.596 5.4622C15.596 6.60086 15.3627 7.9262 14.896 9.4382L13.804 12.9102H17.808L16.744 9.4942C16.3147 8.18753 16.072 7.0022 16.016 5.9382L15.988 5.4622H15.596Z" fill="#F8F8F8"/>
<path d="M21.942 30.2522H7.326L6.906 27.7322C7.774 26.7522 9.034 26.2622 10.686 26.2622H25.302L25.722 28.7822C24.882 29.7622 23.622 30.2522 21.942 30.2522Z" fill="#8A49FF"/>
</g>
<defs>
<clipPath id="clip0_212_2425">
<rect width="32" height="32" rx="8" fill="white"/>
</clipPath>
</defs>
</svg>
