<svg width="32" height="32" viewBox="0 0 32 32" fill="none" xmlns="http://www.w3.org/2000/svg">
<g clip-path="url(#clip0_88_30637)">
<path d="M17.92 1.54L23.492 17.696C24.276 17.976 24.8267 18.3027 25.144 18.676L24.864 21H18.312L18.032 18.676C18.256 18.3773 18.704 18.0973 19.376 17.836L18.62 15.484H13.02L12.32 17.752C12.9733 18.0133 13.4587 18.3213 13.776 18.676L13.496 21H7.112L6.832 18.676C7.168 18.2467 7.79333 17.892 8.708 17.612L14.084 1.54H17.92ZM15.596 5.46C15.596 6.59867 15.3627 7.924 14.896 9.436L13.804 12.908H17.808L16.744 9.492C16.3147 8.18533 16.072 7 16.016 5.936L15.988 5.46H15.596Z" fill="#F9F4DA"/>
<path d="M21.942 30.25H7.326L6.906 27.73C7.774 26.75 9.034 26.26 10.686 26.26H25.302L25.722 28.78C24.882 29.76 23.622 30.25 21.942 30.25Z" fill="#9E36F2"/>
</g>
<defs>
<clipPath id="clip0_88_30637">
<rect y="-0.00213623" width="32" height="32" rx="8" fill="white"/>
</clipPath>
</defs>
</svg>
