<svg width="32" height="32" viewBox="0 0 32 32" fill="none" xmlns="http://www.w3.org/2000/svg">
<rect width="32" height="32" rx="6" fill="#8A49FF"/>
<path d="M12.424 21.648L11.368 22.56C10.456 22.16 9.264 21.256 7.792 19.848C6.336 18.424 5.256 17.096 4.552 15.864C5.256 14.632 6.336 13.312 7.792 11.904C9.264 10.48 10.456 9.568 11.368 9.168L12.424 10.056C11.752 11.784 10.464 13.72 8.56 15.864C10.496 18.072 11.784 20 12.424 21.648Z" fill="#F0F0F0"/>
<path d="M14.1308 25.6713C13.9355 25.4146 13.796 24.969 13.7123 24.3345C13.6897 24.1627 13.7155 23.9508 13.7899 23.6989L17.0076 6.95427L18.345 6.99974C18.4567 7.13294 18.5458 7.34982 18.6124 7.65036C18.6904 7.93594 18.7408 8.16466 18.7634 8.3365C18.7861 8.50835 18.7611 8.72682 18.6885 8.99193L15.4682 25.7168L14.1308 25.6713Z" fill="#F0F0F0"/>
<path d="M20.8158 22.56L19.7598 21.648C20.3518 20.08 21.6318 18.152 23.5998 15.864C21.6638 13.64 20.3838 11.704 19.7598 10.056L20.8158 9.168C21.7278 9.568 22.9118 10.48 24.3678 11.904C25.8398 13.312 26.9278 14.632 27.6318 15.864C26.9278 17.096 25.8398 18.424 24.3678 19.848C22.9118 21.256 21.7278 22.16 20.8158 22.56Z" fill="#F0F0F0"/>
</svg>
